<svg width="155" height="38" viewBox="0 0 155 38" fill="none" xmlns="http://www.w3.org/2000/svg">
<path d="M0.9 8.825L15.7 0.225C16.2 -0.075 16.8 -0.075 17.4 0.225L26.7 5.625C27.6 6.125 27.8 7.425 27 8.225L23.8 11.425C23.3 11.925 22.5 12.025 21.8 11.725L17.4 9.125C16.9 8.825 16.2 8.825 15.7 9.125L0 18.225V10.225C0 9.725 0.4 9.125 0.9 8.825Z" fill="#FF8C00"/>
<path d="M26.7 31.725L17.3 37.125C16.8 37.425 16.2 37.425 15.7 37.125L0.9 28.625C0.4 28.325 0 27.725 0 27.225V20.025L7.6 15.625V22.725C7.6 23.325 7.9 23.825 8.4 24.125L15.6 28.225C16.1 28.525 16.7 28.525 17.2 28.225L21.7 25.625C22.3 25.225 23.2 25.325 23.7 25.925L26.9 29.125C27.8 29.925 27.7 31.225 26.7 31.725Z" fill="#191919"/>
<path d="M86.6008 4.02539V26.4254C86.6008 27.9254 86.0008 28.1254 84.5008 28.1254H73.2008C72.7008 28.1254 72.3008 28.0254 72.0008 27.7254C71.8008 27.5254 71.5008 27.6254 71.5008 26.2254V4.02539H65.8008V26.8254C65.8008 28.7254 66.5008 30.3254 67.8008 31.6254C69.0008 32.8254 70.8008 33.4254 73.1008 33.4254H85.2008C87.3008 33.4254 89.0008 32.8254 90.4008 31.5254C91.8008 30.2254 92.5008 28.8254 92.5008 26.3254V4.02539H86.6008Z" fill="#191919"/>
<path d="M121.4 18.0254C120.3 16.8254 118.8 16.2254 116.9 16.2254H106.5C105.9 16.2254 105.4 16.1254 105 15.6254C104.5 15.2254 104.5 14.7254 104.5 14.2254V11.2254C104.5 10.6254 104.6 10.1254 105 9.82539C105.2 9.62539 105.5 9.32539 106.8 9.32539H123V4.02539H104.8C102.7 4.02539 100.9 4.92539 99.7004 6.72539C99.2004 7.42539 98.9004 8.72539 98.9004 10.5254V16.0254C98.9004 17.7254 99.3004 19.0254 100.2 19.9254C101.2 21.0254 102.6 21.5254 104.3 21.5254H115.3C116 21.5254 116.5 21.6254 116.8 21.9254C117.3 22.3254 117.5 22.7254 117.5 23.2254V26.2254C117.5 27.6254 117.2 27.6254 117.1 27.8254C116.7 28.2254 116.2 28.4254 115.5 28.4254H99.0004V33.6254H116.4C118.5 33.6254 120.1 32.9254 121.4 31.6254C122.5 30.4254 123.1 28.8254 123.1 26.7254V23.3254C123.1 20.9254 122.5 19.2254 121.4 18.0254Z" fill="#191919"/>
<path d="M129.9 4.02539V9.22539H139.5V33.4254H145.3V9.22539H155V4.02539H129.9Z" fill="#191919"/>
<path d="M59.7996 16.2254C59.8996 14.5254 59.7996 10.5254 59.7996 10.5254C59.7996 7.92539 58.5996 5.92539 56.2996 4.72539C55.3996 4.22539 53.9996 4.02539 52.0996 4.02539H41.3996C39.6996 4.02539 34.5996 4.02539 34.5996 4.02539L37.1996 9.22539H42.9996C43.0996 9.22539 43.0996 9.22539 43.1996 9.22539H51.3996C52.6996 9.22539 54.0996 9.42539 54.0996 11.2254V15.5254C54.0996 16.9254 53.3996 17.5254 51.8996 17.5254H44.2996H34.5996V33.4254H40.2996V22.7254H48.9996L52.9996 33.4254H59.7996C59.7996 33.4254 55.7996 22.6254 55.5996 22.3254C55.3996 22.0254 57.2996 21.7254 58.3996 20.4254C59.4996 19.1254 59.6996 17.9254 59.7996 16.2254Z" fill="#191919"/>
</svg>
