<svg width="2399" height="1086" viewBox="0 0 2399 1086" fill="none" xmlns="http://www.w3.org/2000/svg">
<g clip-path="url(#clip0_1425_357)">
<path d="M1199.32 547.08C1860.31 547.08 2396.14 512.808 2396.14 470.53C2396.14 428.253 1860.31 393.98 1199.32 393.98C538.335 393.98 2.5 428.253 2.5 470.53C2.5 512.808 538.335 547.08 1199.32 547.08Z" stroke="#4147D5" stroke-width="5" stroke-miterlimit="10"/>
<path d="M1199.32 623.63C1860.31 623.63 2396.14 589.358 2396.14 547.08C2396.14 504.803 1860.31 470.53 1199.32 470.53C538.335 470.53 2.5 504.803 2.5 547.08C2.5 589.358 538.335 623.63 1199.32 623.63Z" stroke="#4147D5" stroke-width="5" stroke-miterlimit="10"/>
<path d="M1199.32 700.17C1860.31 700.17 2396.14 665.898 2396.14 623.62C2396.14 581.343 1860.31 547.07 1199.32 547.07C538.335 547.07 2.5 581.343 2.5 623.62C2.5 665.898 538.335 700.17 1199.32 700.17Z" stroke="#4147D5" stroke-width="5" stroke-miterlimit="10"/>
<path d="M1199.32 776.72C1860.31 776.72 2396.14 742.448 2396.14 700.17C2396.14 657.893 1860.31 623.62 1199.32 623.62C538.335 623.62 2.5 657.893 2.5 700.17C2.5 742.448 538.335 776.72 1199.32 776.72Z" stroke="#4147D5" stroke-width="5" stroke-miterlimit="10"/>
<path d="M1199.32 853.271C1860.31 853.271 2396.14 818.998 2396.14 776.721C2396.14 734.443 1860.31 700.171 1199.32 700.171C538.335 700.171 2.5 734.443 2.5 776.721C2.5 818.998 538.335 853.271 1199.32 853.271Z" stroke="#4147D5" stroke-width="5" stroke-miterlimit="10"/>
<path d="M187.801 163.78H2203.08V1053.46C2203.08 1070.03 2189.65 1083.46 2173.08 1083.46H217.801C201.231 1083.46 187.801 1070.03 187.801 1053.46V163.78Z" fill="#D7DFFF" stroke="#4147D5" stroke-width="5" stroke-miterlimit="10"/>
<path d="M217.801 2.5H2173.08C2189.65 2.5 2203.08 15.93 2203.08 32.5V163.78H187.801V32.5C187.801 15.93 201.231 2.5 217.801 2.5Z" fill="#D7DFFF" stroke="#4147D5" stroke-width="5" stroke-miterlimit="10"/>
<path d="M284.751 108.62C298.824 108.62 310.232 97.2124 310.232 83.1402C310.232 69.0679 298.824 57.6602 284.751 57.6602C270.679 57.6602 259.271 69.0679 259.271 83.1402C259.271 97.2124 270.679 108.62 284.751 108.62Z" stroke="#4147D5" stroke-width="5" stroke-miterlimit="10"/>
<path d="M372.8 108.62C386.873 108.62 398.28 97.2124 398.28 83.1402C398.28 69.0679 386.873 57.6602 372.8 57.6602C358.728 57.6602 347.32 69.0679 347.32 83.1402C347.32 97.2124 358.728 108.62 372.8 108.62Z" stroke="#4147D5" stroke-width="5" stroke-miterlimit="10"/>
<path d="M460.851 108.62C474.923 108.62 486.331 97.2124 486.331 83.1402C486.331 69.0679 474.923 57.6602 460.851 57.6602C446.779 57.6602 435.371 69.0679 435.371 83.1402C435.371 97.2124 446.779 108.62 460.851 108.62Z" stroke="#4147D5" stroke-width="5" stroke-miterlimit="10"/>
<path d="M478.8 579.03H474.07V789.29H478.8V579.03Z" fill="#4147D5"/>
<path d="M581.561 686.523V681.793H371.301V686.523H581.561Z" fill="#4147D5"/>
<path d="M403.763 608.148L400.418 611.492L549.093 760.167L552.437 756.822L403.763 608.148Z" fill="#4147D5"/>
<path d="M552.442 611.487L549.098 608.143L400.423 756.817L403.767 760.162L552.442 611.487Z" fill="#4147D5"/>
<path d="M476.43 702.931C486.797 702.931 495.2 694.527 495.2 684.161C495.2 673.794 486.797 665.391 476.43 665.391C466.064 665.391 457.66 673.794 457.66 684.161C457.66 694.527 466.064 702.931 476.43 702.931Z" fill="#4147D5"/>
<path d="M1138.79 643.49C1222.79 643.49 1290.88 575.397 1290.88 491.4C1290.88 407.403 1222.79 339.31 1138.79 339.31C1054.79 339.31 986.699 407.403 986.699 491.4C986.699 575.397 1054.79 643.49 1138.79 643.49Z" fill="#D7DFFF" stroke="#4147D5" stroke-width="5" stroke-miterlimit="10"/>
<path d="M1240.4 526.76C1225.74 568.76 1185.73 598.97 1138.79 598.97C1091.85 598.97 1051.84 568.76 1037.18 526.76" stroke="#4147D5" stroke-width="5" stroke-miterlimit="10"/>
<path d="M1230.43 524.88C1230.43 524.88 1238.9 529.41 1248.75 528.62" stroke="#4147D5" stroke-width="5" stroke-miterlimit="10"/>
<path d="M1046.34 524.88C1046.34 524.88 1037.87 529.41 1028.02 528.62" stroke="#4147D5" stroke-width="5" stroke-miterlimit="10"/>
<path d="M1176.78 500.229C1190.25 500.229 1201.17 477.212 1201.17 448.819C1201.17 420.426 1190.25 397.409 1176.78 397.409C1163.31 397.409 1152.39 420.426 1152.39 448.819C1152.39 477.212 1163.31 500.229 1176.78 500.229Z" fill="#4147D5"/>
<path d="M1100.8 500.229C1114.27 500.229 1125.19 477.212 1125.19 448.819C1125.19 420.426 1114.27 397.409 1100.8 397.409C1087.33 397.409 1076.41 420.426 1076.41 448.819C1076.41 477.212 1087.33 500.229 1100.8 500.229Z" fill="#4147D5"/>
<path d="M793.279 702.931H1004.66" stroke="#4147D5" stroke-width="5" stroke-miterlimit="10"/>
<path d="M898.969 597.24V808.61" stroke="#4147D5" stroke-width="5" stroke-miterlimit="10"/>
<path d="M898.969 808.61C898.969 808.61 934.199 761.9 934.199 702.92C934.199 643.94 898.969 597.23 898.969 597.23" stroke="#4147D5" stroke-width="5" stroke-miterlimit="10"/>
<path d="M898.969 808.62C957.34 808.62 1004.66 761.301 1004.66 702.93C1004.66 644.559 957.34 597.24 898.969 597.24C840.598 597.24 793.279 644.559 793.279 702.93C793.279 761.301 840.598 808.62 898.969 808.62Z" stroke="#4147D5" stroke-width="5" stroke-miterlimit="10"/>
<path d="M898.969 808.61C898.969 808.61 969.429 785.03 969.429 702.92C969.429 620.81 898.969 597.23 898.969 597.23" stroke="#4147D5" stroke-width="5" stroke-miterlimit="10"/>
<path d="M898.968 808.61C898.968 808.61 863.738 761.9 863.738 702.92C863.738 643.94 898.968 597.23 898.968 597.23" stroke="#4147D5" stroke-width="5" stroke-miterlimit="10"/>
<path d="M898.97 808.61C898.97 808.61 828.51 785.03 828.51 702.92C828.51 620.81 898.97 597.23 898.97 597.23" stroke="#4147D5" stroke-width="5" stroke-miterlimit="10"/>
<path d="M804.449 750.26C815.739 745.41 845.959 735.11 898.969 735.11C951.979 735.11 982.199 745.41 993.489 750.26" stroke="#4147D5" stroke-width="5" stroke-miterlimit="10"/>
<path d="M829.41 782.501C840.39 777.331 862.05 770.341 898.97 770.341C935.61 770.341 957.22 777.221 968.28 782.381" stroke="#4147D5" stroke-width="5" stroke-miterlimit="10"/>
<path d="M804.449 655.591C815.739 660.441 845.959 670.741 898.969 670.741C951.979 670.741 982.199 660.441 993.489 655.591" stroke="#4147D5" stroke-width="5" stroke-miterlimit="10"/>
<path d="M829.41 623.351C840.39 628.521 862.05 635.511 898.97 635.511C935.61 635.511 957.22 628.631 968.28 623.471" stroke="#4147D5" stroke-width="5" stroke-miterlimit="10"/>
<path d="M734.932 535.73V626.41H739.892V535.73C739.082 535.83 738.252 535.891 737.412 535.891C736.572 535.891 735.752 535.83 734.932 535.73Z" fill="#4147D5"/>
<path d="M739.892 496.71V406.03H734.932V496.71C735.742 496.61 736.572 496.55 737.412 496.55C738.252 496.55 739.082 496.61 739.892 496.71Z" fill="#4147D5"/>
<path d="M756.932 518.7H847.612V513.74H756.932C757.032 514.55 757.092 515.38 757.092 516.22C757.092 517.06 757.032 517.89 756.932 518.7Z" fill="#4147D5"/>
<path d="M717.901 513.74H627.221V518.7H717.901C717.801 517.89 717.741 517.06 717.741 516.22C717.741 515.38 717.801 514.55 717.901 513.74Z" fill="#4147D5"/>
<path d="M725.37 500.67L661.25 436.55L657.74 440.06L721.86 504.18C722.88 502.87 724.06 501.69 725.37 500.67Z" fill="#4147D5"/>
<path d="M749.461 531.771L813.581 595.891L817.091 592.381L752.971 528.261C751.951 529.571 750.771 530.751 749.461 531.771Z" fill="#4147D5"/>
<path d="M752.961 504.18L817.081 440.06L813.571 436.55L749.451 500.67C750.771 501.69 751.951 502.87 752.961 504.18Z" fill="#4147D5"/>
<path d="M721.86 528.261L657.74 592.381L661.25 595.891L725.37 531.771C724.06 530.751 722.88 529.571 721.86 528.261Z" fill="#4147D5"/>
<path d="M1801.14 563.09H476.43V684.16H1801.14V563.09Z" fill="white" stroke="#4147D5" stroke-width="5" stroke-miterlimit="10"/>
<path d="M1922.22 563.09H1801.15V684.16H1922.22V563.09Z" fill="#4147D5" stroke="#4147D5" stroke-width="5" stroke-miterlimit="10"/>
<path d="M1871.87 636.72C1884.73 636.72 1895.15 626.297 1895.15 613.44C1895.15 600.583 1884.73 590.16 1871.87 590.16C1859.01 590.16 1848.59 600.583 1848.59 613.44C1848.59 626.297 1859.01 636.72 1871.87 636.72Z" stroke="white" stroke-width="5" stroke-miterlimit="10"/>
<path d="M1855.4 629.9L1828.21 657.09" stroke="white" stroke-width="5" stroke-miterlimit="10"/>
<path d="M1554.38 491.4L1571.44 559.55L1620.28 509.06L1600.98 576.61L1668.53 557.31L1618.04 606.15L1686.19 623.21L1618.04 640.27L1668.53 689.11L1600.98 669.81L1620.28 737.36L1571.44 686.87L1554.38 755.02L1537.32 686.87L1488.47 737.36L1507.78 669.81L1440.23 689.11L1490.72 640.27L1422.57 623.21L1490.72 606.15L1440.23 557.31L1507.78 576.61L1488.47 509.06L1537.32 559.55L1554.38 491.4Z" fill="white" stroke="#4147D5" stroke-width="5" stroke-miterlimit="10"/>
<path d="M1540.04 631.17C1535.1 617.73 1548.16 604.66 1561.61 609.6L1666.88 648.3L1771.52 686.77C1785.07 691.75 1786.45 710.36 1773.78 717.29L1692.27 761.84L1647.72 843.35C1640.8 856.01 1622.18 854.63 1617.2 841.09L1578.73 736.44L1540.04 631.17Z" fill="#4147D5"/>
<path d="M460.851 368.57L475.001 405.32L511.751 419.47L475.001 433.61L460.851 470.36L446.701 433.62L409.961 419.47L446.711 405.32L460.851 368.57Z" fill="#4147D5" stroke="#4147D5" stroke-width="5" stroke-miterlimit="10"/>
<path d="M1091.88 801.19L1106.03 837.94L1142.78 852.09L1106.03 866.23L1091.88 902.98L1077.73 866.24L1040.99 852.09L1077.74 837.94L1091.88 801.19Z" fill="#4147D5"/>
<path d="M1946.04 377.47L1960.18 414.23L1996.94 428.37L1960.18 442.51L1946.04 479.27L1931.89 442.53L1895.15 428.37L1931.9 414.23L1946.04 377.47Z" fill="#4147D5"/>
<g clip-path="url(#clip1_1425_357)">
<path d="M640.368 810.462L458.461 860.428L489.639 973.547L671.546 923.58L640.368 810.462Z" fill="#D7DFFF" stroke="#4147D5" stroke-width="5" stroke-miterlimit="10"/>
<path d="M458.459 860.424L570.204 910.885L640.362 810.457" stroke="#4147D5" stroke-width="5" stroke-miterlimit="10"/>
<path d="M585.289 889.291L671.54 923.577" stroke="#4147D5" stroke-width="5" stroke-miterlimit="10"/>
<path d="M489.639 973.539L546.179 900.033" stroke="#4147D5" stroke-width="5" stroke-miterlimit="10"/>
</g>
<path d="M501.312 645V641.062L506.406 640.188V616.031L501.312 615.156V611.188H511.938L512.344 615.594C513.427 613.99 514.823 612.75 516.531 611.875C518.24 611 520.219 610.562 522.469 610.562C524.719 610.562 526.646 611.083 528.25 612.125C529.875 613.167 531.094 614.729 531.906 616.812C532.969 614.896 534.375 613.375 536.125 612.25C537.875 611.125 539.917 610.562 542.25 610.562C545.708 610.562 548.438 611.75 550.438 614.125C552.438 616.479 553.438 620.031 553.438 624.781V640.188L558.531 641.062V645H542.156V641.062L547.25 640.188V624.719C547.25 621.385 546.677 619.031 545.531 617.656C544.385 616.26 542.688 615.562 540.438 615.562C538.292 615.562 536.562 616.323 535.25 617.844C533.958 619.344 533.208 621.24 533 623.531V640.188L538.094 641.062V645H521.75V641.062L526.844 640.188V624.719C526.844 621.552 526.25 619.24 525.062 617.781C523.896 616.302 522.198 615.562 519.969 615.562C518.094 615.562 516.552 615.948 515.344 616.719C514.135 617.49 513.208 618.573 512.562 619.969V640.188L517.656 641.062V645H501.312ZM567.656 658.656C567.177 658.656 566.552 658.594 565.781 658.469C565.01 658.365 564.417 658.26 564 658.156L564.625 653.312C564.979 653.354 565.469 653.385 566.094 653.406C566.719 653.448 567.146 653.469 567.375 653.469C568.688 653.469 569.75 652.969 570.562 651.969C571.396 650.969 572.167 649.604 572.875 647.875L574.344 644.312L562.375 615.656L558.75 615.156V611.188H572.938V615.156L568.844 615.781L575.438 632.688L577.031 637.094H577.219L585.031 615.781L580.719 615.156V611.188H594.625V615.156L591.125 615.656L577.812 650.188C577.188 651.812 576.427 653.26 575.531 654.531C574.656 655.823 573.573 656.833 572.281 657.562C571.01 658.292 569.469 658.656 567.656 658.656ZM609.562 645L600.656 615.594L596.875 615.156V611.188H610.844V615.156L606.688 615.844L611.344 632.688L612.406 636.688H612.594L613.969 632.688L621.312 611.188H626.5L633.5 632.625L635 637.375H635.188L636.656 632.625L641.375 615.812L637.125 615.156V611.188H650.781V615.156L647.031 615.688L638.281 645H632.438L625.594 624.688L623.969 619.25L623.781 619.281L622.188 624.688L614.844 645H609.562ZM669.344 645.656C666.219 645.656 663.5 644.948 661.188 643.531C658.875 642.094 657.083 640.104 655.812 637.562C654.562 635.021 653.938 632.083 653.938 628.75V627.375C653.938 624.167 654.594 621.302 655.906 618.781C657.24 616.24 659 614.24 661.188 612.781C663.396 611.302 665.802 610.562 668.406 610.562C671.448 610.562 673.99 611.188 676.031 612.438C678.094 613.688 679.646 615.448 680.688 617.719C681.729 619.969 682.25 622.625 682.25 625.688V629.531H660.312L660.219 629.688C660.26 631.854 660.635 633.781 661.344 635.469C662.073 637.135 663.115 638.448 664.469 639.406C665.823 640.365 667.448 640.844 669.344 640.844C671.427 640.844 673.25 640.552 674.812 639.969C676.396 639.365 677.76 638.542 678.906 637.5L681.312 641.5C680.104 642.667 678.5 643.656 676.5 644.469C674.521 645.26 672.135 645.656 669.344 645.656ZM660.5 624.719H676.094V623.906C676.094 622.281 675.802 620.833 675.219 619.562C674.656 618.271 673.802 617.26 672.656 616.531C671.531 615.781 670.115 615.406 668.406 615.406C667.031 615.406 665.781 615.812 664.656 616.625C663.531 617.417 662.604 618.5 661.875 619.875C661.146 621.25 660.667 622.812 660.438 624.562L660.5 624.719ZM705.031 645.656C702.823 645.656 700.906 645.24 699.281 644.406C697.656 643.552 696.302 642.302 695.219 640.656L694.656 645H689.344V601.094L684.25 600.219V596.25H695.5V615.188C696.562 613.688 697.875 612.542 699.438 611.75C701.021 610.958 702.865 610.562 704.969 610.562C707.76 610.562 710.135 611.323 712.094 612.844C714.073 614.344 715.583 616.458 716.625 619.188C717.688 621.917 718.219 625.094 718.219 628.719V629.375C718.219 632.625 717.688 635.469 716.625 637.906C715.583 640.344 714.073 642.25 712.094 643.625C710.135 644.979 707.781 645.656 705.031 645.656ZM703.469 640.656C706.365 640.656 708.51 639.625 709.906 637.562C711.323 635.5 712.031 632.771 712.031 629.375V628.719C712.031 626.115 711.719 623.833 711.094 621.875C710.469 619.896 709.521 618.354 708.25 617.25C706.979 616.125 705.365 615.562 703.406 615.562C701.51 615.562 699.906 616.021 698.594 616.938C697.302 617.854 696.271 619.083 695.5 620.625V635.562C696.271 637.125 697.312 638.365 698.625 639.281C699.958 640.198 701.573 640.656 703.469 640.656ZM737.125 645.656C734.354 645.656 731.885 645.156 729.719 644.156C727.552 643.135 725.854 641.698 724.625 639.844C723.417 637.969 722.844 635.75 722.906 633.188L723 633H728.875C728.875 634.604 729.208 635.99 729.875 637.156C730.542 638.323 731.49 639.229 732.719 639.875C733.948 640.521 735.417 640.844 737.125 640.844C739.729 640.844 741.771 640.135 743.25 638.719C744.729 637.302 745.469 635.208 745.469 632.438C745.469 629.625 744.812 627.552 743.5 626.219C742.188 624.885 740.115 624.219 737.281 624.219H731.906V619.406H737.281C739.094 619.406 740.552 619.104 741.656 618.5C742.76 617.875 743.552 616.99 744.031 615.844C744.531 614.677 744.781 613.281 744.781 611.656C744.781 609.052 744.135 607.073 742.844 605.719C741.552 604.365 739.646 603.688 737.125 603.688C735.521 603.688 734.125 604.01 732.938 604.656C731.75 605.281 730.823 606.177 730.156 607.344C729.51 608.49 729.188 609.844 729.188 611.406H723.281L723.219 611.219C723.156 608.927 723.698 606.844 724.844 604.969C726.01 603.094 727.646 601.604 729.75 600.5C731.875 599.396 734.333 598.844 737.125 598.844C741.333 598.844 744.688 599.969 747.188 602.219C749.688 604.448 750.938 607.635 750.938 611.781C750.938 613.656 750.365 615.531 749.219 617.406C748.094 619.26 746.396 620.677 744.125 621.656C746.854 622.552 748.781 623.958 749.906 625.875C751.052 627.792 751.625 629.938 751.625 632.312C751.625 635.083 751 637.469 749.75 639.469C748.521 641.448 746.812 642.979 744.625 644.062C742.438 645.125 739.938 645.656 737.125 645.656ZM759.656 645V638.688H765.812V645H759.656ZM788.156 645.656C785.094 645.656 782.427 644.948 780.156 643.531C777.885 642.094 776.125 640.104 774.875 637.562C773.625 635.021 773 632.083 773 628.75V627.438C773 624.229 773.604 621.354 774.812 618.812C776.021 616.271 777.76 614.26 780.031 612.781C782.302 611.302 785.01 610.562 788.156 610.562C790.885 610.562 793.271 611.01 795.312 611.906C797.375 612.802 799.104 614.031 800.5 615.594L800.656 623.719H795.844L794.781 617.812C794.073 617.083 793.188 616.5 792.125 616.062C791.062 615.625 789.812 615.406 788.375 615.406C786.542 615.406 784.927 615.948 783.531 617.031C782.156 618.115 781.083 619.562 780.312 621.375C779.542 623.188 779.156 625.208 779.156 627.438V628.75C779.156 631.208 779.51 633.344 780.219 635.156C780.948 636.969 781.979 638.375 783.312 639.375C784.667 640.354 786.271 640.844 788.125 640.844C790.208 640.844 791.938 640.271 793.312 639.125C794.688 637.979 795.531 636.406 795.844 634.406H801.375L801.438 634.594C801.333 636.531 800.76 638.344 799.719 640.031C798.677 641.719 797.188 643.083 795.25 644.125C793.333 645.146 790.969 645.656 788.156 645.656ZM805.938 645V641.062L811.031 640.188V601.094L805.938 600.219V596.25H817.188V640.188L822.281 641.062V645H805.938ZM841.562 645.656C837.896 645.656 835.031 644.479 832.969 642.125C830.906 639.771 829.875 636.104 829.875 631.125V616.031L826 615.156V611.188H829.875H836.031V631.188C836.031 634.792 836.562 637.271 837.625 638.625C838.688 639.979 840.344 640.656 842.594 640.656C844.781 640.656 846.583 640.219 848 639.344C849.438 638.448 850.521 637.188 851.25 635.562V616.031L846.719 615.156V611.188H851.25H857.406V640.188L861.281 641.062V645H851.875L851.469 640C850.406 641.812 849.031 643.208 847.344 644.188C845.677 645.167 843.75 645.656 841.562 645.656ZM883.594 645.656C881.385 645.656 879.469 645.24 877.844 644.406C876.219 643.552 874.865 642.302 873.781 640.656L873.219 645H867.906V601.094L862.812 600.219V596.25H874.062V615.188C875.125 613.688 876.438 612.542 878 611.75C879.583 610.958 881.427 610.562 883.531 610.562C886.323 610.562 888.698 611.323 890.656 612.844C892.635 614.344 894.146 616.458 895.188 619.188C896.25 621.917 896.781 625.094 896.781 628.719V629.375C896.781 632.625 896.25 635.469 895.188 637.906C894.146 640.344 892.635 642.25 890.656 643.625C888.698 644.979 886.344 645.656 883.594 645.656ZM882.031 640.656C884.927 640.656 887.073 639.625 888.469 637.562C889.885 635.5 890.594 632.771 890.594 629.375V628.719C890.594 626.115 890.281 623.833 889.656 621.875C889.031 619.896 888.083 618.354 886.812 617.25C885.542 616.125 883.927 615.562 881.969 615.562C880.073 615.562 878.469 616.021 877.156 616.938C875.865 617.854 874.833 619.083 874.062 620.625V635.562C874.833 637.125 875.875 638.365 877.188 639.281C878.521 640.198 880.135 640.656 882.031 640.656Z" fill="#4147D5"/>
</g>
<defs>
<clipPath id="clip0_1425_357">
<rect width="2398.65" height="1085.96" fill="white"/>
</clipPath>
<clipPath id="clip1_1425_357">
<rect width="216" height="166" fill="white" transform="translate(457 809)"/>
</clipPath>
</defs>
</svg>
