<?xml version="1.0" standalone="no"?><!DOCTYPE svg PUBLIC "-//W3C//DTD SVG 1.1//EN" "http://www.w3.org/Graphics/SVG/1.1/DTD/svg11.dtd"><svg t="1645164019043" class="icon" viewBox="0 0 1024 1024" version="1.1" xmlns="http://www.w3.org/2000/svg" p-id="8969" xmlns:xlink="http://www.w3.org/1999/xlink" width="200" height="200"><defs><style type="text/css"></style></defs><path d="M0 0m72.576 0l878.848 0q72.576 0 72.576 72.576l0 878.848q0 72.576-72.576 72.576l-878.848 0q-72.576 0-72.576-72.576l0-878.848q0-72.576 72.576-72.576Z" fill="#EFEFEE" p-id="8970"></path><path d="M508.928 750.976h-220.16c-23.808 0-32.512-9.6-33.408-33.408a62.336 62.336 0 0 1 39.68-64c45.952-21.504 91.392-44.416 136.96-66.944 27.776-13.696 32-34.944 12.8-58.368a162.048 162.048 0 0 1-41.088-112.128 309.76 309.76 0 0 1 2.176-64 106.368 106.368 0 0 1 163.712-62.72 102.4 102.4 0 0 1 46.08 87.04 344.704 344.704 0 0 1-3.072 73.472 192 192 0 0 1-41.984 82.432c-15.36 18.688-12.8 38.4 8.704 50.304 40.448 21.376 82.048 40.576 123.136 60.8 19.2 9.344 39.936 15.872 52.736 36.48a72.576 72.576 0 0 1 7.936 48.256c-2.176 15.36-12.8 22.784-30.976 22.784z" fill="#C2C1C1" p-id="8971"></path></svg>